<svg width="1539" height="550" viewBox="0 0 1539 550" fill="none" xmlns="http://www.w3.org/2000/svg">
<path d="M55.4156 512.269C55.4156 514.678 53.0062 517.087 50.5968 517.087H32.125C29.7156 517.087 27.3062 514.678 27.3062 512.269V505.844C27.3062 503.434 29.7156 501.025 32.125 501.025H50.5968C53.0062 501.025 55.4156 503.434 55.4156 505.844V512.269Z" fill="#03263A"/>
<path d="M229.694 512.269C229.694 514.678 227.284 517.088 224.875 517.088H206.403C203.994 517.088 201.584 514.678 201.584 512.269V505.844C201.584 503.434 203.994 501.025 206.403 501.025H224.875C227.284 501.025 229.694 503.434 229.694 505.844V512.269Z" fill="#03263A"/>
<path d="M257 475.325C257 508.253 230.497 505.041 197.569 505.041H59.4313C26.5031 505.041 0 508.253 0 475.325V91.4313C0 58.5031 26.5031 32 59.4313 32H197.569C230.497 32 257 58.5031 257 91.4313V475.325V475.325Z" fill="#FF5B00"/>
<path d="M197.569 32H114.847V505.041H197.569C230.497 505.041 257 508.253 257 475.325V91.4313C257 58.5031 230.497 32 197.569 32Z" fill="#FF3C00"/>
<path d="M135.728 207.081L26.5031 98.6594L25.7 169.334L64.25 207.081H135.728Z" fill="#FF3C00"/>
<path d="M257 475.325V468.9L26.5031 238.403L25.7 309.078L221.662 505.041C242.544 504.237 257 499.419 257 475.325Z" fill="#FF3C00"/>
<path d="M20.0781 475.325V91.4313C20.0781 58.5031 46.5813 32 79.5094 32H59.4313C26.5031 32 0 58.5031 0 91.4313V475.325C0 508.253 26.5031 505.041 59.4313 505.041C36.9438 505.041 20.0781 501.025 20.0781 475.325Z" fill="#FF781D"/>
<path d="M257 198.247H0V217.522H257V198.247Z" fill="#03263A"/>
<path d="M257 207.081H0V216.719H257V207.081Z" fill="#053C54"/>
<path d="M38.55 162.909C38.55 167.728 34.5344 172.547 28.9125 172.547C24.0938 172.547 19.275 168.531 19.275 162.909V109.903C19.275 105.084 23.2906 100.266 28.9125 100.266C33.7313 100.266 38.55 104.281 38.55 109.903V162.909Z" fill="#053C54"/>
<path d="M24.8968 101.069C21.6843 102.675 19.275 105.887 19.275 109.903V162.909C19.275 166.925 21.6843 170.137 24.8968 171.744C28.1093 170.137 30.5187 166.925 30.5187 162.909V109.903C31.3218 105.887 28.9125 102.675 24.8968 101.069Z" fill="#055875"/>
<path d="M38.55 300.244C38.55 305.063 34.5343 309.881 28.9125 309.881C24.0937 309.881 19.275 305.866 19.275 300.244V247.237C19.275 242.419 23.2906 237.6 28.9125 237.6C33.7312 237.6 38.55 241.616 38.55 247.237V300.244Z" fill="#053C54"/>
<path d="M24.8968 238.403C21.6843 240.009 19.275 243.222 19.275 247.237V300.244C19.275 304.259 21.6843 307.472 24.8968 309.078C28.1093 307.472 30.5187 304.259 30.5187 300.244V247.237C31.3218 243.222 28.9125 239.206 24.8968 238.403Z" fill="#055875"/>
<path d="M224.875 165.319C224.072 165.319 223.269 164.516 223.269 163.712C223.269 162.909 224.072 162.106 224.875 162.106H236.922C237.725 162.106 238.528 162.909 238.528 163.712C238.528 164.516 237.725 165.319 236.922 165.319H224.875Z" fill="#FF781D"/>
<path d="M224.875 175.759C224.072 175.759 223.269 174.956 223.269 174.153C223.269 173.35 224.072 172.547 224.875 172.547H236.922C237.725 172.547 238.528 173.35 238.528 174.153C238.528 174.956 237.725 175.759 236.922 175.759H224.875Z" fill="#FF781D"/>
<path d="M224.875 185.397C224.072 185.397 223.269 184.594 223.269 183.791C223.269 182.987 224.072 182.184 224.875 182.184H236.922C237.725 182.184 238.528 182.987 238.528 183.791C238.528 184.594 237.725 185.397 236.922 185.397H224.875Z" fill="#FF781D"/>
<path d="M224.875 468.097C224.072 468.097 223.269 467.294 223.269 466.491C223.269 465.687 224.072 464.884 224.875 464.884H236.922C237.725 464.884 238.528 465.687 238.528 466.491C238.528 467.294 237.725 468.097 236.922 468.097H224.875Z" fill="#FF781D"/>
<path d="M224.875 477.734C224.072 477.734 223.269 476.931 223.269 476.128C223.269 475.325 224.072 474.522 224.875 474.522H236.922C237.725 474.522 238.528 475.325 238.528 476.128C238.528 476.931 237.725 477.734 236.922 477.734H224.875Z" fill="#FF781D"/>
<path d="M224.875 488.175C224.072 488.175 223.269 487.372 223.269 486.569C223.269 485.766 224.072 484.962 224.875 484.962H236.922C237.725 484.962 238.528 485.766 238.528 486.569C238.528 487.372 237.725 488.175 236.922 488.175H224.875Z" fill="#FF781D"/>
<path d="M562.6 62.4C563.133 60.8 564.267 60 566 60C567.333 60 568.467 60.5333 569.4 61.6C570.467 62.5333 570.733 63.6 570.2 64.8L522.8 199.6C522 201.867 520.467 203 518.2 203C517.267 203 516.4 202.667 515.6 202C514.8 201.467 514.2 200.667 513.8 199.6L469.4 74.2L424.8 199.6C424 201.867 422.467 203 420.2 203C419.267 203 418.4 202.667 417.6 202C416.8 201.467 416.2 200.667 415.8 199.6L368.2 64.8C368.067 64.5333 368 64.2 368 63.8C368 62.7333 368.467 61.8667 369.4 61.2C370.333 60.4 371.333 60 372.4 60C374.133 60 375.267 60.8 375.8 62.4L420.2 190L464.4 64.2C464.8 63 465.4 62.1333 466.2 61.6C467.133 60.9333 468.133 60.6 469.2 60.6C471.467 60.6 473.067 61.8667 474 64.4L518.2 190L562.6 62.4ZM705.355 60C706.688 60 707.688 60.4667 708.355 61.4C709.155 62.2 709.555 63.2667 709.555 64.6V198.4C709.555 199.733 709.155 200.867 708.355 201.8C707.688 202.6 706.688 203 705.355 203C704.021 203 702.955 202.6 702.155 201.8C701.488 200.867 701.155 199.733 701.155 198.4V134.2H606.155V198.4C606.155 199.733 605.755 200.867 604.955 201.8C604.288 202.6 603.288 203 601.955 203C600.621 203 599.555 202.6 598.755 201.8C598.088 200.867 597.755 199.733 597.755 198.4V64.6C597.755 63.2667 598.088 62.2 598.755 61.4C599.555 60.4667 600.621 60 601.955 60C603.288 60 604.288 60.4667 604.955 61.4C605.755 62.2 606.155 63.2667 606.155 64.6V126.6H701.155V64.6C701.155 63.2667 701.488 62.2 702.155 61.4C702.955 60.4667 704.021 60 705.355 60ZM863.95 198C864.217 198.8 864.35 199.333 864.35 199.6C864.35 200.667 863.95 201.467 863.15 202C862.483 202.667 861.617 203 860.55 203C858.55 203 857.15 202.067 856.35 200.2L840.15 163H760.35L743.95 200.2C743.15 202.067 741.817 203 739.95 203C738.483 203 737.35 202.533 736.55 201.6C735.75 200.667 735.617 199.467 736.15 198L795.35 63C796.15 60.8667 797.75 59.8 800.15 59.8C801.217 59.8 802.15 60.1333 802.95 60.8C803.883 61.3333 804.55 62.0667 804.95 63L863.95 198ZM763.75 155H836.55L800.15 71.8L763.75 155ZM914.103 203C912.77 203 911.703 202.6 910.903 201.8C910.236 200.867 909.903 199.733 909.903 198.4V68.6H860.903C859.836 68.6 858.97 68.2667 858.303 67.6C857.636 66.9333 857.303 66 857.303 64.8C857.303 63.7333 857.636 62.8667 858.303 62.2C858.97 61.4 859.836 61 860.903 61H967.103C968.036 61 968.903 61.4 969.703 62.2C970.503 62.8667 970.903 63.7333 970.903 64.8C970.903 66 970.503 66.9333 969.703 67.6C968.903 68.2667 968.036 68.6 967.103 68.6H918.303V198.4C918.303 199.733 917.903 200.867 917.103 201.8C916.436 202.6 915.436 203 914.103 203ZM1028.23 203.6C1018.49 203.6 1009.03 202 999.827 198.8C990.76 195.467 983.627 191.067 978.427 185.6C977.227 184.4 976.627 182.8 976.627 180.8C976.627 179.733 976.893 178.867 977.427 178.2C977.96 177.4 978.627 177 979.427 177C980.36 177 981.56 177.533 983.027 178.6C996.227 189.8 1011.29 195.4 1028.23 195.4C1041.16 195.4 1051.09 192.8 1058.03 187.6C1065.09 182.267 1068.63 174.733 1068.63 165C1068.63 159.4 1066.89 154.867 1063.43 151.4C1059.96 147.933 1055.69 145.333 1050.63 143.6C1045.56 141.733 1038.76 139.8 1030.23 137.8C1018.63 135 1009.76 132.533 1003.63 130.4C997.493 128.267 991.96 124.667 987.027 119.6C982.227 114.4 979.827 107.333 979.827 98.4C979.827 90.6667 981.827 83.8667 985.827 78C989.96 72 995.693 67.4 1003.03 64.2C1010.49 61 1019.03 59.4 1028.63 59.4C1037.83 59.4 1046.49 61 1054.63 64.2C1062.89 67.4 1069.56 71.8 1074.63 77.4C1075.96 78.8667 1076.63 80.4667 1076.63 82.2C1076.63 83.2667 1076.29 84.2 1075.63 85C1075.09 85.6667 1074.43 86 1073.63 86C1072.43 86 1071.29 85.4667 1070.23 84.4C1062.63 77.8667 1055.83 73.4667 1049.83 71.2C1043.83 68.8 1036.76 67.6 1028.63 67.6C1015.96 67.6 1006.09 70.3333 999.027 75.8C991.96 81.2667 988.427 88.9333 988.427 98.8C988.427 104.667 989.96 109.467 993.027 113.2C996.227 116.933 1000.23 119.867 1005.03 122C1009.96 124.133 1016.09 126.133 1023.43 128L1032.03 130C1041.63 132.133 1049.43 134.333 1055.43 136.6C1061.43 138.733 1066.49 142.133 1070.63 146.8C1074.89 151.467 1077.03 157.733 1077.03 165.6C1077.03 173.067 1074.96 179.667 1070.83 185.4C1066.83 191.133 1061.09 195.6 1053.63 198.8C1046.29 202 1037.83 203.6 1028.23 203.6ZM1159.38 203C1158.04 203 1156.98 202.6 1156.18 201.8C1155.51 200.867 1155.18 199.733 1155.18 198.4V64.6C1155.18 63.2667 1155.51 62.2 1156.18 61.4C1156.98 60.4667 1158.04 60 1159.38 60C1160.58 60 1161.51 60.4667 1162.18 61.4C1162.98 62.2 1163.38 63.2667 1163.38 64.6V198.4C1163.38 199.733 1162.98 200.867 1162.18 201.8C1161.51 202.6 1160.58 203 1159.38 203ZM1306.06 60C1308.59 60 1309.86 61.5333 1309.86 64.6V198.4C1309.86 199.733 1309.46 200.867 1308.66 201.8C1307.99 202.6 1306.99 203 1305.66 203C1304.72 203 1303.99 202.8 1303.46 202.4C1302.92 202 1302.32 201.333 1301.66 200.4L1209.66 75.2V198.4C1209.66 199.733 1209.26 200.867 1208.46 201.8C1207.79 202.6 1206.86 203 1205.66 203C1203.12 203 1201.86 201.467 1201.86 198.4V64.6C1201.86 63.2667 1202.19 62.2 1202.86 61.4C1203.66 60.4667 1204.79 60 1206.26 60C1207.19 60 1207.86 60.2 1208.26 60.6C1208.79 60.8667 1209.46 61.4667 1210.26 62.4L1302.06 187.6V64.6C1302.06 63.2667 1302.39 62.2 1303.06 61.4C1303.86 60.4667 1304.86 60 1306.06 60ZM504.4 333C505.867 333 506.933 333.467 507.6 334.4C508.4 335.2 508.8 336.267 508.8 337.6V471.2C508.8 474.4 507.333 476 504.4 476C502 476 500.8 474.4 500.8 471.2V351.6L449.2 451.4C448.667 452.467 447.933 453.333 447 454C446.2 454.533 445.267 454.8 444.2 454.8C441.933 454.8 440.267 453.667 439.2 451.4L387.2 352.4V471.2C387.2 474.4 385.867 476 383.2 476C380.533 476 379.2 474.4 379.2 471.2V337.6C379.2 336.267 379.533 335.2 380.2 334.4C381 333.467 382.133 333 383.6 333C384.4 333 385.133 333.267 385.8 333.8C386.467 334.2 387.133 335.067 387.8 336.4L444.2 445L500 336.4C500.667 335.067 501.333 334.2 502 333.8C502.667 333.267 503.467 333 504.4 333ZM635.569 335C636.635 333.8 637.702 333.2 638.769 333.2C639.702 333.2 640.502 333.6 641.169 334.4C641.969 335.2 642.369 336.067 642.369 337C642.369 337.8 642.035 338.733 641.369 339.8L590.169 406.6V471.4C590.169 472.733 589.769 473.867 588.969 474.8C588.302 475.6 587.302 476 585.969 476C584.635 476 583.569 475.6 582.769 474.8C582.102 473.867 581.769 472.733 581.769 471.4V406.4L530.569 339.8C530.035 339.133 529.769 338.267 529.769 337.2C529.769 336.133 530.102 335.2 530.769 334.4C531.569 333.6 532.435 333.2 533.369 333.2C534.569 333.2 535.635 333.8 536.569 335L586.169 399.6L635.569 335ZM716.798 476C715.465 476 714.398 475.6 713.598 474.8C712.932 473.867 712.598 472.733 712.598 471.4V338.4C712.598 337.2 713.065 336.2 713.998 335.4C715.065 334.467 716.265 334 717.598 334H792.598C793.665 334 794.532 334.4 795.198 335.2C795.865 335.867 796.198 336.733 796.198 337.8C796.198 339 795.865 340 795.198 340.8C794.532 341.467 793.665 341.8 792.598 341.8H720.798V399.6H788.598C789.665 399.6 790.532 399.933 791.198 400.6C791.865 401.267 792.198 402.2 792.198 403.4C792.198 404.6 791.865 405.533 791.198 406.2C790.532 406.867 789.665 407.2 788.598 407.2H720.798V471.4C720.798 474.467 719.465 476 716.798 476ZM925.369 470.2C925.769 471 925.969 471.733 925.969 472.4C925.969 473.333 925.569 474.2 924.769 475C924.102 475.667 923.235 476 922.169 476C920.835 476 919.702 475.333 918.769 474L891.569 429.8C887.569 423.133 883.302 418.6 878.769 416.2C874.369 413.8 868.235 412.6 860.369 412.6H830.369V471.4C830.369 472.733 829.969 473.867 829.169 474.8C828.502 475.6 827.569 476 826.369 476C825.035 476 823.969 475.6 823.169 474.8C822.502 474 822.169 472.867 822.169 471.4V338.4C822.169 337.2 822.635 336.2 823.569 335.4C824.635 334.467 825.835 334 827.169 334H876.569C891.102 334 902.302 337.333 910.169 344C918.169 350.533 922.169 360.2 922.169 373C922.169 384.467 918.635 393.467 911.569 400C904.635 406.533 894.835 410.267 882.169 411.2C885.235 412.267 888.035 414.067 890.569 416.6C893.235 419.133 895.902 422.533 898.569 426.8L925.369 470.2ZM876.769 404.6C901.169 404.6 913.369 394 913.369 372.8C913.369 362.4 910.369 354.667 904.369 349.6C898.369 344.4 889.169 341.8 876.769 341.8H830.569V404.6H876.769ZM961.72 476C960.387 476 959.32 475.6 958.52 474.8C957.854 473.867 957.52 472.733 957.52 471.4V337.6C957.52 336.267 957.854 335.2 958.52 334.4C959.32 333.467 960.387 333 961.72 333C962.92 333 963.854 333.467 964.52 334.4C965.32 335.2 965.72 336.267 965.72 337.6V471.4C965.72 472.733 965.32 473.867 964.52 474.8C963.854 475.6 962.92 476 961.72 476ZM1009.2 475C1007.87 475 1006.67 474.533 1005.6 473.6C1004.67 472.667 1004.2 471.667 1004.2 470.6V338.4C1004.2 337.2 1004.67 336.2 1005.6 335.4C1006.67 334.467 1007.87 334 1009.2 334H1047.6C1069.6 334 1086.6 340.067 1098.6 352.2C1110.6 364.2 1116.6 381.6 1116.6 404.4C1116.6 427.067 1110.6 444.533 1098.6 456.8C1086.6 468.933 1069.6 475 1047.6 475H1009.2ZM1047.4 467.4C1067.93 467.4 1083.07 462 1092.8 451.2C1102.67 440.4 1107.6 424.8 1107.6 404.4C1107.6 362.533 1087.53 341.6 1047.4 341.6H1012.4V467.4H1047.4ZM1251.52 404C1252.72 404 1253.66 404.4 1254.32 405.2C1255.12 405.867 1255.52 406.867 1255.52 408.2V464C1255.52 464.667 1255.26 465.333 1254.72 466C1254.32 466.667 1253.79 467.267 1253.12 467.8C1247.66 470.467 1240.86 472.6 1232.72 474.2C1224.72 475.8 1216.46 476.6 1207.92 476.6C1194.46 476.6 1182.86 473.8 1173.12 468.2C1163.52 462.467 1156.12 454.2 1150.92 443.4C1145.86 432.467 1143.32 419.467 1143.32 404.4C1143.32 389.6 1145.86 376.8 1150.92 366C1155.99 355.2 1163.26 346.933 1172.72 341.2C1182.32 335.333 1193.59 332.4 1206.52 332.4C1215.86 332.4 1224.66 334 1232.92 337.2C1241.19 340.4 1247.92 344.8 1253.12 350.4C1254.46 352.133 1255.12 353.733 1255.12 355.2C1255.12 356.267 1254.86 357.2 1254.32 358C1253.79 358.667 1253.06 359 1252.12 359C1251.06 359 1249.92 358.467 1248.72 357.4C1241.12 351 1234.26 346.6 1228.12 344.2C1221.99 341.8 1214.79 340.6 1206.52 340.6C1189.32 340.6 1175.99 346.2 1166.52 357.4C1157.19 368.467 1152.52 384.133 1152.52 404.4C1152.52 425.067 1157.26 440.933 1166.72 452C1176.32 463.067 1190.06 468.6 1207.92 468.6C1215.26 468.6 1222.39 467.933 1229.32 466.6C1236.39 465.267 1242.52 463.4 1247.72 461V412H1212.52C1211.06 412 1209.92 411.6 1209.12 410.8C1208.32 410 1207.92 409.067 1207.92 408C1207.92 406.8 1208.32 405.867 1209.12 405.2C1209.92 404.4 1211.06 404 1212.52 404H1251.52ZM1297.29 475C1295.95 475 1294.75 474.533 1293.69 473.6C1292.75 472.667 1292.29 471.667 1292.29 470.6V338.4C1292.29 337.2 1292.75 336.2 1293.69 335.4C1294.75 334.467 1295.95 334 1297.29 334H1374.29C1375.35 334 1376.22 334.4 1376.89 335.2C1377.55 335.867 1377.89 336.8 1377.89 338C1377.89 339.067 1377.55 340 1376.89 340.8C1376.22 341.467 1375.35 341.8 1374.29 341.8H1300.69V399.6H1370.29C1371.35 399.6 1372.22 399.933 1372.89 400.6C1373.55 401.267 1373.89 402.2 1373.89 403.4C1373.89 404.6 1373.55 405.6 1372.89 406.4C1372.22 407.067 1371.35 407.4 1370.29 407.4H1300.69V467.2H1374.29C1375.35 467.2 1376.22 467.533 1376.89 468.2C1377.55 468.867 1377.89 469.8 1377.89 471C1377.89 472.2 1377.55 473.2 1376.89 474C1376.22 474.667 1375.35 475 1374.29 475H1297.29Z" fill="black"/>
</svg>
